<svg xmlns="http://www.w3.org/2000/svg" viewBox="0 0 18 18" width="18in" height="18in">
  <!-- Rotated acrylic square -->
  <rect x="3.5" y="0" width="12" height="12" fill="none" stroke="black" stroke-width="0.02" transform="rotate(45, 6, 6)"/>


  
  <rect x="3.5" y="0" width="12" height="12" fill="none" stroke="black" stroke-width="0.02" transform="rotate(45, 6, 6)"/>
  
  <!-- Cut line - positioned about 1 inch shy of the middle -->
  <!-- 1 inch shy of middle: 8.485"/2 - 1" = 3.243" from edge -->
  <line x1="1.9" y1="6.5" x2="15" y2="6.5" stroke="red" stroke-width="0.02" />
  
  <line x1="0" y1="8.485" x2="8.485" y2="16.980" stroke="blue" stroke-width="0.02" />
  <line x1="8.485" y1="16.980" x2="16.98" y2="8.485" stroke="blue" stroke-width="0.02" />

<g transform="translate(2.5,5)">



  <circle cx="4.6" cy="2.25" r="0.1" />
  <circle cx="7.4" cy="2.25" r="0.1" />
  
  <circle cx="4.6" cy="3.5" r="0.1" />
  <circle cx="7.4" cy="3.5" r="0.1" />
  
  <circle cx="6.0" cy="2.5" r="0.1" />
  <circle cx="6.0" cy="3.25" r="0.1" />
  
  
  
  <circle cx="2.0" cy="2.75" r="0.25" />
  <circle cx="10.0" cy="2.75" r="0.25" />



  <!-- center point -->
  <circle cx="6.0" cy="11.5" r="0.1" />
  <circle cx="6.0" cy="10.3" r="0.1" />

  <!-- power mount point -->
  <circle cx="10.75" cy="6.75" r="0.1" />
  <circle cx="1.25" cy="6.75" r="0.1" />

  <circle cx="12.75" cy="4.75" r="0.1" />
  <circle cx="13.5" cy="4.00" r="0.1" />
  

  <!-- left path -->
  <circle cx="5.4" cy="10.9" r="0.1" />
  <circle cx="4.8" cy="10.3" r="0.1" />

  <!-- right path -->
  <circle cx="6.6" cy="10.9" r="0.1" />
  <circle cx="7.2" cy="10.3" r="0.1" />
  
  
  <circle cx="-0.75" cy="4.75" r="0.1" />
  <circle cx="-1.5" cy="4.00" r="0.1" />
  
</g>
  
  
</svg>

